<mxfile host="app.diagrams.net" agent="Mozilla/5.0 (Windows NT 10.0; Win64; x64) AppleWebKit/537.36 (KHTML, like Gecko) Chrome/133.0.0.0 Safari/537.36" version="24.8.6">
  <diagram name="第 1 页" id="qbRVRUoKZyLvRsx70nnq">
    <mxGraphModel dx="1245" dy="643" grid="1" gridSize="10" guides="1" tooltips="1" connect="1" arrows="1" fold="1" page="1" pageScale="1" pageWidth="827" pageHeight="1169" math="0" shadow="0">
      <root>
        <mxCell id="0" />
        <mxCell id="1" parent="0" />
        <mxCell id="ogA_cs4jYgl6kHqg-TM3-1" value="New" style="text;html=1;align=center;verticalAlign=middle;resizable=0;points=[];autosize=1;strokeColor=none;fillColor=none;fontStyle=1;fontSize=20;" vertex="1" parent="1">
          <mxGeometry x="60" y="63" width="60" height="40" as="geometry" />
        </mxCell>
        <mxCell id="ogA_cs4jYgl6kHqg-TM3-3" value="3.KSampler" style="whiteSpace=wrap;html=1;" vertex="1" parent="1">
          <mxGeometry x="60" y="130" width="130" height="30" as="geometry" />
        </mxCell>
        <mxCell id="ogA_cs4jYgl6kHqg-TM3-4" value="4.CheckpointLoaderSimple" style="whiteSpace=wrap;html=1;" vertex="1" parent="1">
          <mxGeometry x="230" y="130" width="160" height="30" as="geometry" />
        </mxCell>
        <mxCell id="ogA_cs4jYgl6kHqg-TM3-5" value="5.EmptyLatentImage" style="whiteSpace=wrap;html=1;" vertex="1" parent="1">
          <mxGeometry x="410" y="130" width="120" height="30" as="geometry" />
        </mxCell>
        <mxCell id="ogA_cs4jYgl6kHqg-TM3-6" value="6.CLIPTextEncode pos" style="whiteSpace=wrap;html=1;" vertex="1" parent="1">
          <mxGeometry x="570" y="130" width="150" height="30" as="geometry" />
        </mxCell>
        <mxCell id="ogA_cs4jYgl6kHqg-TM3-7" value="7.CLIPTextEncode neg" style="whiteSpace=wrap;html=1;" vertex="1" parent="1">
          <mxGeometry x="60" y="210" width="130" height="30" as="geometry" />
        </mxCell>
        <mxCell id="ogA_cs4jYgl6kHqg-TM3-8" value="8.VAEDecode" style="whiteSpace=wrap;html=1;" vertex="1" parent="1">
          <mxGeometry x="220" y="210" width="120" height="30" as="geometry" />
        </mxCell>
        <mxCell id="ogA_cs4jYgl6kHqg-TM3-9" value="9.SaveImage" style="whiteSpace=wrap;html=1;" vertex="1" parent="1">
          <mxGeometry x="380" y="210" width="130" height="30" as="geometry" />
        </mxCell>
        <mxCell id="ogA_cs4jYgl6kHqg-TM3-10" value="10.GLIGENLoader" style="whiteSpace=wrap;html=1;" vertex="1" parent="1">
          <mxGeometry x="540" y="210" width="130" height="30" as="geometry" />
        </mxCell>
        <mxCell id="ogA_cs4jYgl6kHqg-TM3-11" value="11.VAELoader" style="whiteSpace=wrap;html=1;" vertex="1" parent="1">
          <mxGeometry x="60" y="290" width="130" height="30" as="geometry" />
        </mxCell>
        <mxCell id="ogA_cs4jYgl6kHqg-TM3-12" value="12.LoraLoader" style="whiteSpace=wrap;html=1;" vertex="1" parent="1">
          <mxGeometry x="220" y="290" width="130" height="30" as="geometry" />
        </mxCell>
        <mxCell id="ogA_cs4jYgl6kHqg-TM3-13" value="13.GLIGENTextBoxApply" style="whiteSpace=wrap;html=1;" vertex="1" parent="1">
          <mxGeometry x="380" y="290" width="150" height="30" as="geometry" />
        </mxCell>
        <mxCell id="ogA_cs4jYgl6kHqg-TM3-14" value="14&lt;span style=&quot;background-color: initial;&quot;&gt;.GLIGENTextBoxApply&lt;/span&gt;" style="whiteSpace=wrap;html=1;" vertex="1" parent="1">
          <mxGeometry x="570" y="290" width="150" height="30" as="geometry" />
        </mxCell>
        <mxCell id="ogA_cs4jYgl6kHqg-TM3-15" value="15&lt;span style=&quot;background-color: initial;&quot;&gt;.GLIGENTextBoxApply&lt;/span&gt;" style="whiteSpace=wrap;html=1;" vertex="1" parent="1">
          <mxGeometry x="60" y="360" width="150" height="30" as="geometry" />
        </mxCell>
        <mxCell id="ogA_cs4jYgl6kHqg-TM3-16" value="16&lt;span style=&quot;background-color: initial;&quot;&gt;.GLIGENTextBoxApply&lt;/span&gt;" style="whiteSpace=wrap;html=1;" vertex="1" parent="1">
          <mxGeometry x="240" y="360" width="150" height="30" as="geometry" />
        </mxCell>
        <mxCell id="ogA_cs4jYgl6kHqg-TM3-17" value="3.KSampler" style="whiteSpace=wrap;html=1;" vertex="1" parent="1">
          <mxGeometry x="60" y="520" width="130" height="30" as="geometry" />
        </mxCell>
        <mxCell id="ogA_cs4jYgl6kHqg-TM3-18" value="4.CheckpointLoaderSimple" style="whiteSpace=wrap;html=1;" vertex="1" parent="1">
          <mxGeometry x="235" y="520" width="160" height="30" as="geometry" />
        </mxCell>
        <mxCell id="ogA_cs4jYgl6kHqg-TM3-19" value="5.EmptyLatentImage" style="whiteSpace=wrap;html=1;" vertex="1" parent="1">
          <mxGeometry x="410" y="520" width="120" height="30" as="geometry" />
        </mxCell>
        <mxCell id="ogA_cs4jYgl6kHqg-TM3-20" value="6.CLIPTextEncode pos" style="whiteSpace=wrap;html=1;" vertex="1" parent="1">
          <mxGeometry x="570" y="520" width="150" height="30" as="geometry" />
        </mxCell>
        <mxCell id="ogA_cs4jYgl6kHqg-TM3-21" value="7.CLIPTextEncode neg" style="whiteSpace=wrap;html=1;" vertex="1" parent="1">
          <mxGeometry x="60" y="600" width="130" height="30" as="geometry" />
        </mxCell>
        <mxCell id="ogA_cs4jYgl6kHqg-TM3-22" value="8.VAEDecode" style="whiteSpace=wrap;html=1;" vertex="1" parent="1">
          <mxGeometry x="220" y="600" width="130" height="30" as="geometry" />
        </mxCell>
        <mxCell id="ogA_cs4jYgl6kHqg-TM3-23" value="9.SaveImage" style="whiteSpace=wrap;html=1;" vertex="1" parent="1">
          <mxGeometry x="380" y="600" width="130" height="30" as="geometry" />
        </mxCell>
        <mxCell id="ogA_cs4jYgl6kHqg-TM3-24" value="10.GLIGENLoader" style="whiteSpace=wrap;html=1;" vertex="1" parent="1">
          <mxGeometry x="540" y="600" width="130" height="30" as="geometry" />
        </mxCell>
        <mxCell id="ogA_cs4jYgl6kHqg-TM3-25" value="11.GLIGENTextBoxApply" style="whiteSpace=wrap;html=1;" vertex="1" parent="1">
          <mxGeometry x="70" y="680" width="150" height="30" as="geometry" />
        </mxCell>
        <mxCell id="ogA_cs4jYgl6kHqg-TM3-27" value="13.VAELoader" style="whiteSpace=wrap;html=1;" vertex="1" parent="1">
          <mxGeometry x="380" y="680" width="150" height="30" as="geometry" />
        </mxCell>
        <mxCell id="ogA_cs4jYgl6kHqg-TM3-28" value="14&lt;span style=&quot;background-color: initial;&quot;&gt;.GLIGENTextBoxApply&lt;/span&gt;" style="whiteSpace=wrap;html=1;" vertex="1" parent="1">
          <mxGeometry x="570" y="680" width="150" height="30" as="geometry" />
        </mxCell>
        <mxCell id="ogA_cs4jYgl6kHqg-TM3-29" value="15&lt;span style=&quot;background-color: initial;&quot;&gt;.GLIGENTextBoxApply&lt;/span&gt;" style="whiteSpace=wrap;html=1;" vertex="1" parent="1">
          <mxGeometry x="60" y="750" width="150" height="30" as="geometry" />
        </mxCell>
        <mxCell id="ogA_cs4jYgl6kHqg-TM3-30" value="16&lt;span style=&quot;background-color: initial;&quot;&gt;.&lt;/span&gt;LoraLoader" style="whiteSpace=wrap;html=1;" vertex="1" parent="1">
          <mxGeometry x="240" y="750" width="150" height="30" as="geometry" />
        </mxCell>
        <mxCell id="ogA_cs4jYgl6kHqg-TM3-31" value="ComfyUI" style="text;html=1;align=center;verticalAlign=middle;resizable=0;points=[];autosize=1;strokeColor=none;fillColor=none;fontStyle=1;fontSize=17;" vertex="1" parent="1">
          <mxGeometry x="60" y="458" width="90" height="30" as="geometry" />
        </mxCell>
      </root>
    </mxGraphModel>
  </diagram>
</mxfile>
